<svg width="1202" height="430" viewBox="0 0 1202 430" fill="none" xmlns="http://www.w3.org/2000/svg">
<g clip-path="url(#clip0)">
<path d="M798.213 31.3854H317.988C310.349 31.3854 304.132 37.6035 304.132 45.2495V310.661V314.625V336.41C304.132 344.056 310.349 350.273 317.988 350.273H528.391L519.165 405.929H474.481C465.945 405.929 459.003 412.873 459.003 421.41V429.412H657.203V421.41C657.203 412.873 650.254 405.929 641.714 405.929H603.027L593.812 350.273H798.211C805.86 350.273 812.082 344.055 812.082 336.41V314.625V310.661V45.2495C812.084 37.6035 805.862 31.3854 798.213 31.3854ZM603.686 409.893H641.714C648.071 409.893 653.239 415.062 653.239 421.411V425.448H462.968V421.411C462.968 415.062 468.133 409.893 474.481 409.893H518.507H603.686ZM599.01 405.929H523.184L532.41 350.273H589.795L599.01 405.929ZM808.119 336.41C808.119 341.869 803.676 346.309 798.213 346.309H593.155H529.049H317.988C312.532 346.309 308.096 341.869 308.096 336.41V314.625H808.118V336.41H808.119ZM808.119 310.661H308.097V45.2495C308.097 39.7915 312.533 35.3504 317.989 35.3504H798.214C803.677 35.3504 808.12 39.7905 808.12 45.2495V310.661H808.119Z" fill="#999999" stroke="#999999"/>
<path d="M560.904 340.892C566.94 340.892 571.852 335.979 571.852 329.944C571.852 323.908 566.939 318.996 560.904 318.996C554.864 318.996 549.948 323.908 549.948 329.944C549.948 335.979 554.864 340.892 560.904 340.892ZM560.904 322.96C564.756 322.96 567.888 326.092 567.888 329.943C567.888 333.796 564.756 336.927 560.904 336.927C557.048 336.927 553.912 333.795 553.912 329.943C553.912 326.092 557.048 322.96 560.904 322.96Z" fill="#999999" stroke="#999999"/>
<path d="M322.935 305.71H793.26V50.2014H322.935V305.71ZM326.899 54.1654H789.296V301.746H326.899V54.1654Z" fill="#999999" stroke="#999999"/>
<path d="M370.984 169.688L447.928 92.7484C448.702 91.9744 448.702 90.7204 447.928 89.9454C447.154 89.1714 445.899 89.1714 445.125 89.9454L368.181 166.884C367.407 167.659 367.407 168.912 368.181 169.688C368.568 170.075 369.076 170.269 369.582 170.269C370.089 170.269 370.596 170.075 370.984 169.688Z" fill="#999999" stroke="#999999"/>
<path d="M545.046 89.9454C544.272 89.1714 543.017 89.1714 542.243 89.9454L369.021 263.167C368.247 263.941 368.247 265.195 369.021 265.97C369.408 266.358 369.915 266.551 370.422 266.551C370.929 266.551 371.437 266.358 371.824 265.97L545.046 92.7484C545.82 91.9734 545.82 90.7194 545.046 89.9454Z" fill="#999999" stroke="#999999"/>
<path d="M745.228 186.231L668.288 263.167C667.514 263.941 667.514 265.195 668.288 265.97C668.676 266.358 669.182 266.551 669.689 266.551C670.196 266.551 670.704 266.358 671.09 265.97L748.03 189.033C748.804 188.255 748.804 187.001 748.03 186.231C747.257 185.452 746.003 185.452 745.228 186.231Z" fill="#999999" stroke="#999999"/>
<path d="M747.195 89.9454C746.421 89.1714 745.167 89.1714 744.392 89.9454L571.166 263.167C570.392 263.941 570.392 265.195 571.166 265.97C571.553 266.358 572.06 266.551 572.567 266.551C573.075 266.551 573.582 266.358 573.969 265.97L747.195 92.7484C747.969 91.9734 747.969 90.7194 747.195 89.9454Z" fill="#999999" stroke="#999999"/>
<path d="M653.693 89.9454C652.919 89.1714 651.664 89.1714 650.889 89.9454L477.664 263.167C476.89 263.941 476.89 265.195 477.664 265.97C478.051 266.358 478.558 266.551 479.065 266.551C479.572 266.551 480.08 266.358 480.466 265.97L653.693 92.7484C654.467 91.9734 654.467 90.7194 653.693 89.9454Z" fill="#999999" stroke="#999999"/>
<path d="M1171.56 245.575C1169.28 245.575 1167.08 245.869 1164.96 246.372L1078.18 135.651C1082.24 131.179 1082.51 124.288 1078.5 119.542L1060.82 98.6445C1056.63 93.6895 1048.53 93.0034 1043.56 97.2114L1024.16 113.623C1012.42 106.921 999.097 103.355 985.515 103.355C963.87 103.355 943.746 112.023 928.846 127.764L927.607 129.077L960.842 167.009C954.876 172.165 951.346 179.692 951.346 187.589C951.346 202.61 963.573 214.828 978.597 214.828C985.353 214.828 991.687 212.37 996.677 207.91L1029.79 245.699L1031.25 244.642C1051.49 229.977 1063.57 206.342 1063.57 181.411C1063.57 171.554 1061.69 161.965 1058.1 152.851L1059.66 151.535L1145.88 261.529C1143.95 265.382 1142.84 269.706 1142.84 274.294C1142.84 277.402 1143.36 280.396 1144.28 283.201L1017.86 391.813H997.912V390.9C997.912 386.843 994.614 383.545 990.56 383.545C986.503 383.545 983.205 386.844 983.205 390.9V391.813H970.812C958.291 391.813 947.115 400.203 943.63 412.215C942.883 414.794 942.503 417.453 942.503 420.117V429.412H1111.22V420.117C1111.22 418.665 1111.1 417.182 1110.88 415.703C1108.7 401.859 1096.94 391.812 1082.9 391.812H1061.85L1161.92 301.306C1164.94 302.386 1168.17 303.006 1171.56 303.006C1187.39 303.006 1200.27 290.126 1200.27 274.292C1200.27 258.458 1187.39 245.575 1171.56 245.575ZM978.598 210.864C965.756 210.864 955.311 200.424 955.311 187.589C955.311 180.726 958.25 174.393 963.426 169.959L986.516 196.304L994.079 204.946C989.813 208.773 984.381 210.864 978.598 210.864ZM1059.6 181.411C1059.6 204.473 1048.71 226.373 1030.38 240.353L987.779 191.735L963.97 164.554L963.965 164.557L932.98 129.193C946.986 115.075 965.573 107.32 985.514 107.32C998.864 107.32 1011.95 110.917 1023.38 117.717C1032.73 123.292 1040.89 131.004 1046.97 140.017C1049.7 144.075 1052.05 148.437 1053.94 152.986L1053.95 153.014C1057.7 162.043 1059.6 171.596 1059.6 181.411ZM1056.52 148.991C1056.06 147.973 1055.51 146.99 1055 145.991C1054.65 145.305 1054.33 144.608 1053.96 143.931C1052.81 141.832 1051.59 139.778 1050.26 137.802C1048.72 135.518 1047.04 133.323 1045.26 131.209C1044.68 130.528 1044.03 129.904 1043.43 129.243C1042.18 127.848 1040.91 126.463 1039.56 125.162C1038.8 124.434 1037.99 123.768 1037.2 123.063C1035.91 121.925 1034.63 120.795 1033.28 119.742C1032.38 119.05 1031.45 118.419 1030.52 117.76C1029.6 117.103 1028.71 116.382 1027.76 115.767L1046.13 100.239C1049.48 97.3854 1054.95 97.8464 1057.79 101.207L1075.47 122.104C1078.42 125.592 1077.99 130.834 1074.5 133.781L1056.52 148.991ZM1062.69 148.967L1075.25 138.34L1160.91 247.646C1155.69 249.737 1151.23 253.318 1148.04 257.867L1062.69 148.967ZM987.169 390.9C987.169 389.03 988.69 387.508 990.561 387.508C992.427 387.508 993.949 389.029 993.949 390.9V391.813H987.17V390.9H987.169ZM1082.9 395.778C1094.98 395.778 1105.09 404.415 1106.96 416.315C1107.15 417.586 1107.25 418.867 1107.25 420.118V425.448H946.47V420.118C946.47 417.826 946.795 415.542 947.441 413.323C950.437 402.991 960.046 395.778 970.813 395.778H983.205H997.912H1082.9V395.778ZM1055.95 391.813H1023.94L1145.88 287.057C1148.52 292.36 1152.74 296.75 1157.94 299.566L1055.95 391.813ZM1171.56 299.043C1157.91 299.043 1146.81 287.94 1146.81 274.294C1146.81 260.643 1157.91 249.539 1171.56 249.539C1185.21 249.539 1196.31 260.643 1196.31 274.294C1196.31 287.94 1185.21 299.043 1171.56 299.043Z" fill="#999999" stroke="#999999"/>
<path d="M158.276 95.9764C148.06 95.9764 139.748 104.289 139.748 114.508V138.577C139.748 141.576 137.212 144.113 134.208 144.113H108.614V75.8434C108.614 65.9024 100.527 57.8154 90.5891 57.8154C80.6481 57.8154 72.5601 65.9024 72.5601 75.8434V203.279H47.9731C44.9691 203.279 42.4331 200.743 42.4331 197.74V154.62C42.4331 144.403 34.1211 136.091 23.9011 136.091C13.6841 136.091 5.37207 144.404 5.37207 154.62V197.74C5.37207 221.235 24.4811 240.341 47.9731 240.341H72.5601V262.392H46.6641C40.6751 262.392 35.2471 264.742 31.3881 269.004C27.5281 273.267 25.7271 278.9 26.3241 284.861L26.3551 285.178H26.3511L30.0601 322.421L30.1491 323.308L30.4551 326.386L38.4881 406.965C38.6351 408.467 38.9411 409.977 39.3941 411.451C42.5301 421.641 52.4021 429.043 62.8661 429.043H119.311C131.541 429.043 142.478 419.136 143.694 406.965L152.118 322.421H152.114L155.436 289.142L155.49 288.604L155.831 285.178H155.827L155.858 284.861C156.864 274.741 150.864 265.818 141.263 263.163C139.397 262.651 137.465 262.392 135.514 262.392H108.615V181.178H134.209C157.7 181.178 176.81 162.069 176.81 138.577V114.508C176.809 104.289 168.497 95.9764 158.276 95.9764ZM76.5241 240.341V203.279V75.8444C76.5241 68.0904 82.8341 61.7805 90.5881 61.7805C98.3421 61.7805 104.649 68.0914 104.649 75.8444V144.114V181.178V262.392H76.5241V240.341V240.341ZM47.9721 236.376C26.6681 236.376 9.33507 219.045 9.33507 197.741V154.621C9.33507 146.591 15.8701 140.057 23.8991 140.057C31.9321 140.057 38.4671 146.591 38.4671 154.621V197.741C38.4671 202.893 42.8181 207.244 47.9711 207.244H72.5581V229.907H49.4381V233.872H72.5581V236.376H47.9721V236.376ZM139.751 406.575C138.729 416.777 129.562 425.081 119.31 425.081H62.8651C54.1001 425.081 45.8191 418.855 43.1791 410.288C42.8071 409.065 42.5521 407.818 42.4281 406.575L34.4411 326.387H147.733L139.751 406.575ZM148.133 322.423H34.0461L30.7331 289.144H151.447L148.133 322.423ZM135.513 266.357C137.107 266.357 138.687 266.57 140.209 266.983C147.913 269.118 152.725 276.306 151.912 284.467L151.843 285.179H30.3381L30.2641 284.467C29.7841 279.635 31.2281 275.086 34.3251 271.664C37.4271 268.242 41.8081 266.356 46.6631 266.356H72.5591H108.614H135.513V266.357ZM172.844 138.578C172.844 159.882 155.511 177.215 134.208 177.215H108.614V174.396H122.365V170.432H108.614V148.078H134.208C139.36 148.078 143.712 143.726 143.712 138.578V114.509C143.712 106.476 150.247 99.9424 158.276 99.9424C166.309 99.9424 172.844 106.476 172.844 114.509V138.578Z" fill="#999999" stroke="#999999"/>
<path d="M94.4441 194.681H98.4091V250.413H94.4441V194.681Z" fill="#999999" stroke="#999999"/>
<path d="M94.4441 165.631H98.4091V179.196H94.4441V165.631Z" fill="#999999" stroke="#999999"/>
<path d="M166.185 118.941H170.149V134.055H166.185V118.941Z" fill="#999999" stroke="#999999"/>
<path d="M31.8901 165.631H35.8541V190.087H31.8901V165.631Z" fill="#999999" stroke="#999999"/>
<path d="M952.65 373.216C952.65 355.821 938.566 341.664 921.203 341.521V345.474C936.384 345.617 948.685 358.005 948.685 373.216C948.685 388.427 936.383 400.816 921.203 400.962V404.91C938.566 404.767 952.65 390.61 952.65 373.216Z" fill="#999999" stroke="#999999"/>
<path d="M919.627 404.864L917.238 404.729V407.613C917.238 417.446 909.237 425.448 899.403 425.448H849.861C845.584 425.448 841.437 423.896 838.192 421.069C834.274 417.674 832.029 412.769 832.029 407.613V318.771H853.182V316.79H857.146V318.771H917.238V341.698L919.603 341.567C920.049 341.536 920.495 341.508 920.943 341.508C921.032 341.508 921.117 341.52 921.203 341.52V318.721C921.203 318 921.169 317.288 921.096 316.584L920.913 314.807H828.332L828.166 316.608C828.103 317.304 828.065 318.009 828.065 318.721V407.613C828.065 413.915 830.81 419.912 835.59 424.062C839.554 427.511 844.625 429.413 849.861 429.413H899.403C911.424 429.413 921.203 419.634 921.203 407.613V404.91C921.117 404.91 921.032 404.927 920.943 404.927C920.503 404.926 920.064 404.895 919.627 404.864Z" fill="#999999" stroke="#999999"/>
<path d="M921.203 345.473V341.52C921.117 341.52 921.032 341.508 920.943 341.508C920.495 341.508 920.049 341.535 919.603 341.567L917.238 341.698V404.729L919.627 404.864C920.065 404.895 920.503 404.927 920.943 404.927C921.032 404.927 921.117 404.91 921.203 404.91V400.962V345.473Z" fill="#999999" stroke="#999999"/>
<path d="M853.183 318.771H857.147V321.516H853.183V318.771Z" fill="#999999" stroke="#999999"/>
<path d="M853.183 321.516H857.147V323.498H853.183V321.516Z" fill="#999999" stroke="#999999"/>
<path d="M853.183 316.79H857.147V318.771H853.183V316.79Z" fill="#999999" stroke="#999999"/>
<path d="M275.87 218.233L262.442 216.326L250.376 309.21H248.478L251.104 253.539L251.587 243.269L251.633 242.306L251.753 239.739L252.126 231.734C252.212 229.926 251.587 228.19 250.366 226.848C249.147 225.509 247.478 224.726 245.448 224.637C241.772 224.637 238.756 227.473 238.58 231.097L238.214 238.877L237.71 249.552L235.205 302.752L228.323 295.929V248.302C228.323 244.564 225.282 241.523 221.542 241.523C217.8 241.523 214.761 244.563 214.761 248.302V282.472L210.916 278.656L206.097 227.92C205.915 226.039 204.938 224.375 203.488 223.25L202.612 211.965L194.084 212.639L194.936 223.513C193.301 224.934 192.386 227.002 192.593 229.211L192.738 230.726L187.165 231.637L190.126 258.038L186.83 254.767C184.259 252.215 179.79 252.24 177.243 254.811C175.969 256.099 175.268 257.803 175.275 259.616C175.285 261.427 175.997 263.122 177.28 264.395L179.661 266.763H179.659L181.964 269.048L182.168 269.251L197.875 284.827L200.191 309.213H192.201V429.106H270.943V309.211H264.058L275.87 218.233ZM265.485 220.329L271.914 221.244L260.491 309.211H253.94L265.485 220.329ZM242.108 231.265C242.193 229.53 243.661 228.169 245.504 228.169C246.37 228.211 247.171 228.591 247.754 229.228C248.341 229.871 248.637 230.702 248.6 231.569L248.227 239.513L244.987 239.306L241.743 239.1L242.108 231.265ZM241.575 242.63L244.819 242.836L248.06 243.043L247.736 249.887L244.488 249.781L241.244 249.67L241.575 242.63ZM238.442 309.162L238.587 306.108V306.104L241.079 253.201L244.323 253.308L247.571 253.418L244.945 309.21H238.438L238.442 309.162ZM228.323 300.903L234.977 307.504L234.898 309.21H228.323V300.903ZM218.294 305.083V300.103V285.977V248.3C218.294 246.512 219.751 245.056 221.542 245.056C223.333 245.056 224.789 246.512 224.789 248.3V292.42V306.711V309.21H218.294V305.083V305.083ZM214.76 287.447V296.594L212.396 294.247L211.436 284.152L214.76 287.447ZM212.917 299.744L212.979 299.806L214.761 301.572V309.21H213.815L212.917 299.744ZM199.361 215.766L199.833 221.802C199.461 221.768 199.094 221.781 198.704 221.812C198.587 221.823 198.469 221.84 198.352 221.857L197.886 215.88L199.361 215.766ZM193.073 234.252L195.872 263.734L191.693 259.59C191.759 259.597 191.817 259.623 191.882 259.623C191.948 259.623 192.017 259.621 192.083 259.615C193.053 259.507 193.75 258.63 193.643 257.66L191.051 234.582L193.073 234.252ZM182.112 264.221L179.768 261.884C179.154 261.281 178.813 260.462 178.809 259.597C178.806 258.73 179.141 257.913 179.755 257.295C180.367 256.678 181.184 256.336 182.058 256.336C182.921 256.336 183.732 256.67 184.342 257.274L186.627 259.541L184.37 261.882L182.112 264.221ZM184.621 266.705L186.878 264.366L189.135 262.029L196.393 269.232L197.352 279.323L184.621 266.705ZM199.93 269.069L199.793 267.624L196.114 228.881C195.997 227.631 196.601 226.448 197.681 225.795C198.12 225.529 198.574 225.374 199.352 225.319C199.9 225.319 200.432 225.457 200.908 225.719C200.915 225.719 200.919 225.719 200.919 225.719L200.947 225.737C201.864 226.251 202.475 227.191 202.579 228.252L210.265 309.21H203.742L199.93 269.069ZM267.408 312.745V425.571H212.655V359.86C212.655 358.883 211.864 358.093 210.888 358.093C209.911 358.093 209.121 358.884 209.121 359.86V425.571H195.733V312.745H200.524H210.597H214.148H214.76H218.293H224.788H226.014H226.556H226.746H234.732H238.27H248.313H249.917H263.598H267.408Z" fill="#999999" stroke="#999999" stroke-width="0.891452"/>
<path d="M853.183 323.499V321.517H843.269V347.273H867.062V321.517H857.147V323.499H853.183ZM863.098 343.308H847.233V325.481H863.098V343.308Z" fill="#999999" stroke="#999999"/>
<path d="M1171.56 253.318C1160 253.318 1150.58 262.729 1150.58 274.294C1150.58 285.857 1159.99 295.269 1171.56 295.269C1183.12 295.269 1192.53 285.858 1192.53 274.294C1192.53 262.729 1183.12 253.318 1171.56 253.318ZM1171.56 291.304C1162.18 291.304 1154.55 283.673 1154.55 274.293C1154.55 264.912 1162.18 257.282 1171.56 257.282C1180.94 257.282 1188.57 264.912 1188.57 274.293C1188.57 283.674 1180.94 291.304 1171.56 291.304Z" fill="#999999" stroke="#999999"/>
</g>
<defs>
<clipPath id="clip0">
<rect width="1201.97" height="429.903" fill="white"/>
</clipPath>
</defs>
</svg>
