<svg width="248" height="263" viewBox="0 0 248 263" fill="none" xmlns="http://www.w3.org/2000/svg">
<g clip-path="url(#clip0)">
<path d="M176.5 262.42H99.42C94.1983 262.421 89.0957 260.86 84.768 257.938C80.4402 255.016 77.0851 250.867 75.1338 246.023C73.1824 241.18 72.724 235.864 73.8175 230.758C74.9109 225.652 77.5063 220.99 81.27 217.37C81.51 217.14 81.75 216.93 82 216.72L144 165.4C145.367 164.268 146.349 162.739 146.81 161.025C147.271 159.311 147.189 157.496 146.574 155.831C145.96 154.166 144.843 152.733 143.379 151.729C141.914 150.726 140.175 150.202 138.4 150.23L107.33 150.75C100.155 150.863 93.1224 148.741 87.208 144.677C81.2935 140.613 76.7903 134.809 74.3228 128.071C71.8554 121.333 71.5461 113.993 73.4378 107.071C75.3295 100.149 79.3284 93.987 84.88 89.44L138.88 45.22C141.548 43.0346 144.975 41.9986 148.407 42.3399C151.839 42.6813 154.995 44.3719 157.18 47.04C159.365 49.7081 160.401 53.135 160.06 56.5669C159.719 59.9988 158.028 63.1546 155.36 65.34L101.36 109.56C99.981 110.686 98.9872 112.213 98.5169 113.93C98.0466 115.647 98.1232 117.467 98.736 119.138C99.3488 120.81 100.467 122.248 101.936 123.254C103.405 124.26 105.15 124.783 106.93 124.75L138 124.24C145.163 124.118 152.187 126.225 158.1 130.27C164.013 134.314 168.523 140.097 171.006 146.816C173.489 153.536 173.822 160.862 171.96 167.779C170.097 174.697 166.131 180.865 160.61 185.43L99.22 236.21C99.2395 236.284 99.2699 236.355 99.31 236.42H176.5C188.38 236.407 199.77 231.681 208.171 223.281C216.571 214.88 221.297 203.49 221.31 191.61V70.81C221.297 58.9297 216.571 47.5398 208.171 39.1392C199.77 30.7385 188.38 26.0132 176.5 26H70.81C58.9297 26.0132 47.5398 30.7385 39.1392 39.1392C30.7385 47.5398 26.0132 58.9297 26 70.81V229.42C26 232.868 24.6304 236.174 22.1924 238.612C19.7544 241.05 16.4478 242.42 13 242.42C9.55219 242.42 6.24558 241.05 3.80761 238.612C1.36964 236.174 0 232.868 0 229.42L0 70.81C0.0185321 52.0357 7.4848 34.0357 20.7602 20.7602C34.0357 7.4848 52.0357 0.0185321 70.81 0L176.5 0C195.273 0.0211741 213.272 7.48829 226.547 20.7632C239.822 34.038 247.289 52.0365 247.31 70.81V191.61C247.289 210.383 239.822 228.382 226.547 241.657C213.272 254.932 195.273 262.399 176.5 262.42Z" fill="white"/>
</g>
<defs>
<clipPath id="clip0">
<rect width="247.31" height="262.42" fill="white"/>
</clipPath>
</defs>
</svg>
